<svg xmlns="http://www.w3.org/2000/svg" viewBox="0 0 156 16" data-supported-dps="78x8" width="78" height="8" focusable="false">
  <svg>
    <clipPath id="scaling-premium-badge-xxxsmall-a">
      <rect width="16" height="16" rx="3" ry="3" fill="none"></rect>
    </clipPath>
  </svg>
  <path d="M30 15.7h2.8V9.9h2.5c3.4 0 6-1.6 6-5.1S38.8 0 35.3 0H30zm2.8-8V2.2h2.3c2.3 0 3.5.6 3.5 2.6s-1.1 2.9-3.5 2.9zm18.1-5.5h2.2c2.2 0 3.3.6 3.3 2.4s-1.2 2.7-3.3 2.7h-2.2zm8.9 13.5l-3.7-6.6a4.32 4.32 0 003.1-4.5c0-3.5-2.5-4.7-5.8-4.7h-5.3v15.7h2.8V9.5h2.4l3.4 6.1h3.1zm6.6 0h9.7v-2.4h-6.9V8.7h5.6V6.3h-5.6v-4h6.6V0h-9.4v15.7zm16.8 0h2.5V8.5c0-1.5-.2-3.6-.3-5h.1l1.2 3.6 2.7 7.1h1.3l2.7-7.1 1.3-3.6h.1c-.1 1.4-.4 3.5-.4 5v7.2H97V0h-3.1l-2.8 7.7-1 3H90l-1-3L86.2 0h-3zm21.8 0h2.8V0H105zm10.6-6.9c0 5.2 2.3 7.2 6 7.2s5.9-2 5.9-7.2V0h-2.7v9c0 3.4-1.3 4.5-3.2 4.5s-3.2-1.1-3.2-4.5V0h-2.8zm19.8 6.9h2.5V8.5c0-1.5-.2-3.6-.3-5h.1l1.2 3.6 2.7 7.1h1.3l2.7-7.1 1.3-3.6h.1c-.1 1.4-.4 3.5-.4 5v7.2h2.6V0h-3.1l-2.8 7.7-1 3h-.1l-1-3-2.8-7.7h-3v15.7z" opacity=".7"></path>
  <svg clip-path="url(#scaling-premium-badge-xxxsmall-a)">
    <path fill="#c8b476" d="M0 0l16 16V0H0z"></path>
    <path fill="#b29a53" d="M0 16V0l16 16H0z"></path>
  </svg>
</svg>