<svg xmlns="http://www.w3.org/2000/svg" viewBox="0 0 24 24" data-supported-dps="24x24" fill="currentColor" width="24" height="24" focusable="false">
  <path d="M12 2h-.94a10 10 0 00-7.78 14.88L2.1 21a.72.72 0 00.69.92h.2l4.12-1.17A10 10 0 0012 22a10.32 10.32 0 001.57-.12A10 10 0 0012 2zm1.28 18a8.48 8.48 0 01-1.28.1 8.11 8.11 0 01-3-.59L11 18v-1.18a3 3 0 001 .18 3 3 0 001-.18V18l2 1.53a7.81 7.81 0 01-1.72.47zM10 11.16V9.85a2 2 0 014 0v1.3a6 6 0 01-.71 2.85l-.29.6a1 1 0 01-.88.53h-.2a1 1 0 01-.92-.53l-.29-.6a6 6 0 01-.71-2.84zm10.09 1.61a8.15 8.15 0 01-3.16 5.68L15 17v-2.17A8 8 0 0016 11v-1a4 4 0 00-8 0v1a8 8 0 001 3.86V17l-2.65 2-1.87.53.6-2.13.21-.75-.38-.65a8.12 8.12 0 016.32-12.09H12a8.13 8.13 0 018.09 8.86z"></path>
</svg>