<svg xmlns="http://www.w3.org/2000/svg" viewBox="0 0 24 24" data-supported-dps="24x24" fill="currentColor" width="24" height="24" focusable="false">
  <path d="M20 4h-4L12.73.33a1 1 0 00-1.46 0L8 4H4a1 1 0 00-1 1v15a1 1 0 001 1h16a1 1 0 001-1V5a1 1 0 00-1-1zM8 19v-.54a1 1 0 01.65-.94l2.85-1.08v-.51a1.72 1.72 0 00.33 0h.33a1.72 1.72 0 00.33 0v.52l2.85 1.08a1 1 0 01.65.94V19H8zm3-6.55v-1.57a1 1 0 112 0v1.57a1 1 0 01-.12.47l-.76 1.21h-.25l-.76-1.21a1 1 0 01-.11-.47zM19 19h-1v-.38a3 3 0 00-1.94-2.81L14 15v-.27l.61-1a3 3 0 00.39-1.47V11a3 3 0 10-6 0v1.26a3 3 0 00.39 1.47l.61 1V15l-2.06.78A3 3 0 006 18.62V19H5V6h3.9l.6-.67L12 2.52l2.51 2.82.59.66H19v13z"></path>
</svg>