<svg xmlns="http://www.w3.org/2000/svg" viewBox="0 0 24 24" data-supported-dps="24x24" fill="currentColor" width="24" height="24" focusable="false">
  <path fill="none" d="M-.003 0h24v24h-24z"></path>
  <path d="M19.997 2h-16c-1.1 0-2 .9-2 2v16c0 1.1.9 2 2 2h16c1.1 0 2-.9 2-2V4c0-1.1-.9-2-2-2zm-12 17h-3v-9h3v9zm-1.5-10.175c-.992 0-1.825-.817-1.825-1.825s.833-1.825 1.825-1.825S8.322 5.992 8.322 7s-.833 1.825-1.825 1.825zM18.997 19h-3v-4.044c0-1.438-.641-1.956-1.454-1.956-1.062 0-1.546.847-1.546 2.237V19h-3v-9h2.938v1.125c.453-.703 1.422-1.25 2.609-1.25 2.266 0 3.453 1.078 3.453 3.688V19z"></path>
</svg>