<svg xmlns="http://www.w3.org/2000/svg" viewBox="0 0 24 24" data-supported-dps="24x24" fill="currentColor" width="24" height="24" focusable="false">
  <path d="M6.8 5.26l3.11 3.1L8.35 11 13 15.65l2.64-1.56 3.1 3.11-1.58 1.4a2.31 2.31 0 01-1.74.52c-1.2 0-3.8-1.4-6.47-4.07S4.88 9.78 4.88 8.59a2.3 2.3 0 01.52-1.73l1.4-1.6M6.76 3a1 1 0 00-.76.3L4 5.61a4.14 4.14 0 00-1 3c0 1.95 1.8 5 4.61 7.8S13.47 21 15.41 21a4.14 4.14 0 003-1l2.31-2a1 1 0 00.3-.73 1 1 0 00-.3-.73L16.5 12.3a1.05 1.05 0 00-.75-.3 1 1 0 00-.49.14l-2 1.15-2.56-2.59 1.15-2a1 1 0 00.15-.45 1.05 1.05 0 00-.3-.75L7.49 3.3a1 1 0 00-.73-.3z"></path>
</svg>