<svg xmlns="http://www.w3.org/2000/svg" viewBox="0 0 24 24" data-supported-dps="24x24" fill="currentColor" width="24" height="24" focusable="false">
  <path d="M17.29 3a3.7 3.7 0 00-2.62 1.09l-2.58 2.58A3.7 3.7 0 0011 9.29a3.65 3.65 0 00.52 1.86l-.37.37a3.66 3.66 0 00-4.48.56l-2.58 2.59a3.71 3.71 0 105.24 5.24l2.59-2.59A3.7 3.7 0 0013 14.71a3.65 3.65 0 00-.52-1.86l.37-.37a3.66 3.66 0 004.48-.57l2.59-2.59A3.71 3.71 0 0017.29 3zm-6.16 11.71a1.82 1.82 0 01-.54 1.3L8 18.59A1.83 1.83 0 015.41 16L8 13.41a1.79 1.79 0 011.74-.48L8.28 14.4a.94.94 0 001.32 1.33l1.46-1.46a1.82 1.82 0 01.07.44zM18.59 8L16 10.59a1.79 1.79 0 01-1.74.48l1.47-1.47a.94.94 0 00-1.33-1.33l-1.46 1.47A1.79 1.79 0 0113.41 8L16 5.41A1.83 1.83 0 0118.59 8z"></path>
</svg>