<svg width="48" height="48" xmlns="http://www.w3.org/2000/svg" id="maybe-creation-large" data-supported-dps="48x48">
  <g fill="none" fill-rule="evenodd">
    <circle fill="#DEB8DC" fill-rule="nonzero" cx="24.5" cy="24.5" r="16.5"/>
    <path d="M22.66 8.1A16.08 16.08 0 0124.5 8a16.5 16.5 0 11-12.16 5.35" stroke="#523951" stroke-width="2" stroke-linecap="round" stroke-linejoin="round"/>
    <path d="M15 33.66l11.48-1.92a1.89 1.89 0 012.2 1.58 2 2 0 01-1.56 2.18l-4.81.81a1.56 1.56 0 011.79 1.33 1.63 1.63 0 01-1.22 1.84c.446.234.757.663.84 1.16a1.68 1.68 0 01-1.05 1.82c.25.317.368.718.33 1.12a1.74 1.74 0 01-1.5 1.54l-.56.12a43.48 43.48 0 01-4.38.72 27.33 27.33 0 01-5-.39 3.29 3.29 0 01-2.43-2.15c-1.09-2.27-1.69-6.56-.35-7.8 1.34-1.24 1.11-.93 1.75-2.4.64-1.47 1.31-3.16 1.82-4.6.51-1.44.71-2.09 1.66-2.44a1.94 1.94 0 012.34 1.11 8 8 0 01-.14 3c-.24 2-.25 2.46 0 3.14" fill="#DEB8DC" fill-rule="nonzero"/>
    <path d="M26.48 31.74a1.89 1.89 0 012.2 1.58 2 2 0 01-1.56 2.18l-4.81.81a1.56 1.56 0 011.79 1.33 1.63 1.63 0 01-1.22 1.84c.446.234.757.663.84 1.16a1.68 1.68 0 01-1.05 1.82c.25.317.368.718.33 1.12a1.74 1.74 0 01-1.5 1.54l-.56.12a43.48 43.48 0 01-4.38.72 27.33 27.33 0 01-5-.39 3.29 3.29 0 01-2.43-2.15c-1.09-2.27-1.69-6.56-.35-7.8 1.34-1.24 1.11-.93 1.75-2.4.64-1.47 1.31-3.16 1.82-4.6.51-1.44.71-2.09 1.66-2.44a1.94 1.94 0 012.34 1.11 8 8 0 01-.14 3c-.24 2-.25 2.46 0 3.14l10.27-1.69zM13 10a4.2 4.2 0 012.75-1.23 4.15 4.15 0 012.94.67M21 26h3" stroke="#523951" stroke-width="2" stroke-linecap="round" stroke-linejoin="round"/>
    <circle fill="#523951" fill-rule="nonzero" cx="17" cy="19" r="2"/>
    <circle fill="#523951" fill-rule="nonzero" cx="29" cy="20" r="2"/>
    <path d="M28 14.29a4.18 4.18 0 013 0A4.18 4.18 0 0133.45 16" stroke="#523951" stroke-width="2" stroke-linecap="round" stroke-linejoin="round"/>
  </g>
</svg>
