<svg id="Capa_1" enable-background="new 0 0 512 512" height="512" viewBox="0 0 512 512" width="512" xmlns="http://www.w3.org/2000/svg"><g><g><g><g><g><g><g><g><g><g><path d="m88.869 449.921c-54.421-46.945-88.869-116.41-88.869-193.921 0-141.385 114.615-256 256-256s256 114.615 256 256c0 77.511-34.448 146.977-88.87 193.922z" fill="#a3d4ff"/></g></g></g></g></g></g></g></g></g><path d="m343.761 99.053-186.724 116.507 55.378 55.378h-16.56l165.626 165.626 61.649 13.356c51.82-44.701 85.53-109.821 88.634-182.864z" fill="#65b1fc"/><g><circle cx="173.032" cy="202.188" fill="#e09380" r="20.851"/><circle cx="338.968" cy="202.188" fill="#d47f6c" r="20.851"/></g><g><path d="m197.343 328.89-48.746 5.125c-12.03 1.681-22.547 6.586-30.418 13.519-.014-.006-.029-.011-.043-.017-9.227 8.116-14.795 19.034-14.795 30.887v42.35c44.026 23.486 96.424 37.11 152.659 37.11s108.632-13.624 152.659-37.11v-42.35c0-11.853-5.568-22.771-14.795-30.887-.015.006-.029.011-.043.017-7.871-6.933-18.387-11.838-30.418-13.519l-48.746-5.125-58.657 20.881z" fill="#fff"/></g><g><path d="m256 349.769v108.096c56.184-.022 108.667-13.642 152.659-37.109v-42.35c0-11.853-5.568-22.771-14.795-30.887-.015.006-.029.011-.043.017-7.871-6.933-18.387-11.838-30.418-13.519l-48.746-5.125" fill="#e9edf5"/></g><g><path d="m197.343 328.89c13.97 16.848 35.06 27.579 58.657 27.579s44.687-10.731 58.657-27.579l-3.063-.516c-11.012-1.855-19.075-11.39-19.075-22.557v-50.847h-73.037v50.848c0 11.167-8.063 20.702-19.075 22.557z" fill="#e09380"/></g><g><path d="m314.657 328.89-3.063-.516c-11.012-1.855-19.075-11.39-19.075-22.557v-50.847h-36.519v101.498c23.552-.034 44.709-10.756 58.657-27.578z" fill="#d47f6c"/></g><g><path d="m256 295.768c-44.62 0-84.402-36.171-84.402-80.791v-44.922c0-44.62 39.783-80.791 84.402-80.791 44.62 0 84.402 36.171 84.402 80.791v44.922c0 44.62-39.782 80.791-84.402 80.791z" fill="#faa68e"/></g><g><path d="m256 89.265v206.504c44.62 0 84.402-36.171 84.402-80.791v-44.922c0-44.62-39.782-80.791-84.402-80.791z" fill="#e09380"/></g><path d="m88.869 449.921c44.847 38.686 103.257 62.079 167.131 62.079s122.284-23.393 167.131-62.079v-80.954h-334.262z" fill="#414952"/><path d="m256 512c63.874 0 122.284-23.393 167.131-62.079v-80.954h-167.131z" fill="#23272b"/><circle cx="256" cy="456.542" fill="#7e8596" r="29.567"/><path d="m256 426.975c16.33 0 29.567 13.238 29.567 29.567 0 16.33-13.238 29.567-29.567 29.567z" fill="#707789"/><path d="m354.963 137.157c0-38.863-31.504-70.367-70.367-70.367h-47.307c-44.321 0-80.251 35.93-80.251 80.251v40.477c0 8.103 6.568 14.671 14.671 14.671v-25.007h36.042c24.863 0 77.008 1.851 101.196-35.84 2.802 12.315 12.84 33.114 26.681 33.114h4.664v27.733c8.103 0 14.671-6.569 14.671-14.671z" fill="#414952"/><path d="m284.595 66.789h-28.595v107.114c19.967-4.024 40.345-12.925 52.947-32.562 2.802 12.315 12.84 33.114 26.681 33.114h4.664v27.732c8.103 0 14.671-6.568 14.671-14.671v-50.36c0-38.862-31.505-70.367-70.368-70.367z" fill="#333940"/></g></svg>