<svg xmlns="http://www.w3.org/2000/svg" viewBox="0 0 24 24" data-supported-dps="24x24" fill="currentColor" width="24" height="24" focusable="false">
  <path d="M17.51 11l-2.15-3a14.81 14.81 0 01-2.25-5.29L12.74 1H10.5A2.5 2.5 0 008 3.5v.58a9 9 0 00.32 2.39L9 9H4.66A2.61 2.61 0 002 11.4a2.48 2.48 0 00.39 1.43 2.48 2.48 0 00.69 3.39 2.46 2.46 0 001.45 2.92 2.47 2.47 0 000 .36A2.5 2.5 0 007 22h4.52a8 8 0 001.94-.24l3-.76H21V11h-3.49zM19 19h-2.12l-3.41.82A6 6 0 0112 20H7a.9.9 0 01-.9-.89v-.14l.15-1-1-.4a.9.9 0 01-.55-.83.93.93 0 010-.22l.3-.95-.73-.57a.9.9 0 01-.39-.74.88.88 0 01.12-.44l.46-.72-.46-.72a.88.88 0 01-.14-.51 1 1 0 011-.87h6.64l-1.3-4.7a9 9 0 01-.33-2.37v-.55a.5.5 0 01.5-.5h.95a17.82 17.82 0 002.52 6.22L16.6 13H19v6z"></path>
</svg>