<svg id="Capa_1" enable-background="new 0 0 512 512" height="512" viewBox="0 0 512 512" width="512" xmlns="http://www.w3.org/2000/svg"><g><g><g><path d="m256.522 496.333 96.354-27.793c61.613-48.365 101.202-123.51 101.202-207.915 0-129.719-93.489-237.588-216.761-259.943-132.662 9.571-237.317 120.218-237.317 255.318 0 71.244 28.569 135.165 75.536 181.573l10.563 9.899z" fill="#cbe2ff"/></g><g><path d="m256 0c-11.024 0-21.886.698-32.543 2.05 126.019 15.988 223.457 123.59 223.457 253.95 0 95.61-52.415 178.974-130.076 222.935l109.058-31.458c52.813-46.895 86.104-115.293 86.104-191.477 0-141.385-114.615-256-256-256z" fill="#bed8fb"/></g><g><g><g><g><g><g><path d="m334.886 306.987c17.039-9.992 27.503-28.275 27.497-48.027-.019-56.872-.028-87.988-.028-87.988 0-58.738-47.616-106.354-106.354-106.354-58.738 0-106.354 47.616-106.354 106.354 0 0-.009 31.117-.028 87.988-.007 19.752 10.458 38.035 27.497 48.027l11.997 7.036c20.284 11.896 43.374 18.167 66.889 18.167 23.515 0 46.605-6.271 66.889-18.167z" fill="#efc984"/><g><path d="m362.354 170.972c0-44.092-26.832-81.916-65.058-98.038v252.623c8.877-2.919 17.463-6.766 25.592-11.534l11.997-7.036c17.039-9.992 27.503-28.275 27.497-48.027-.018-56.872-.028-87.988-.028-87.988z" fill="#eabc6b"/></g><g><path d="m256 418.104 67.48-47.486-27.239-32.992v-75.207h-80.482v75.207l-27.239 32.992z" fill="#ffddce"/></g><path d="m387.573 355.203-74.522-14.342c-11.766 19.162-32.916 31.943-57.051 31.943s-45.285-12.781-57.051-31.943l-74.522 14.342c-28.38 5.462-48.89 30.296-48.89 59.196v23.174c39.91 39.667 92.827 66.253 151.788 72.824 4.422.493 8.897.222 13.242-.736l18.955-4.18c4.498-.992 9.167-.903 13.624.26 6.184 1.613 12.728 1.149 18.624-1.318 58.042-24.285 105.575-68.671 133.875-124.479-8.737-12.533-22.168-21.68-38.072-24.741z" fill="#4a80aa"/><path d="m436.463 414.399c0-16.318-6.541-31.337-17.343-42.307-37.636 73.834-110.035 126.985-195.638 137.854 10.375 1.315 20.942 2.017 31.666 2.052h.026c.333.001 1.179.002 1.65 0h.026c70.073-.228 133.516-28.61 179.612-74.425v-23.174z" fill="#407093"/><path d="m261.178 505.117c9.536-27.607 29.332-90.05 34.041-145.019-11.02 7.989-24.567 12.706-39.219 12.706s-28.199-4.717-39.219-12.706c4.833 56.421 25.564 120.725 34.777 147.14z" fill="#e28086"/><path d="m250.768 504.961c.921 2.667 1.749 5.02 2.458 7.007 5.249.055 3.424.022 5.548 0 .968-2.711 2.155-6.098 3.502-10.051-3.801 1.102-7.637 2.117-11.508 3.044z" fill="#dd636e"/><path d="m327.324 163.855c-28.418-30.607-33.694-58.413-33.694-58.413-14.116 37.04-49.967 63.355-91.964 63.355-1.285 0-2.564-.025-3.837-.073-9.664-.371-17.69 7.375-17.69 17.046v31.07c.625 41.373 34.338 74.725 75.861 74.725 41.522 0 75.235-33.351 75.861-74.725v-41.405c0-4.292-1.617-8.435-4.537-11.58z" fill="#ffddce"/><path d="m327.324 163.855c-17.072-18.387-25.786-35.754-30.028-46.698v96.257c-.575 38.004-29.074 69.218-65.892 74.053 7.715 2.644 15.983 4.098 24.596 4.098 41.522 0 75.235-33.352 75.861-74.725v-41.405c0-4.292-1.617-8.435-4.537-11.58z" fill="#ffcbbe"/></g></g><g fill="#365e7d"><path d="m171.879 343.452c-3.239 1.985-3.883 6.423-1.341 9.246l15.779 17.527c2.256 2.506 2.04 6.369-.48 8.608l-10.404 9.244c-2.185 1.941-3.265 4.873-2.75 7.749 5.813 32.476 57.771 94.503 76.568 116.09 1.325.032 2.652.055 3.982.069-9.093-25.471-37.475-110.116-37.475-174.36v-21.064z"/><path d="m340.121 343.452-43.878-26.89v21.064c0 64.244-28.382 148.889-37.475 174.36 1.33-.013 2.657-.036 3.982-.069 18.797-21.587 70.755-83.614 76.568-116.09.515-2.877-.566-5.808-2.75-7.749l-10.404-9.244c-2.521-2.239-2.736-6.102-.48-8.608l15.779-17.527c2.541-2.824 1.897-7.262-1.342-9.247z"/></g></g><path d="m343.362 175.56h-11.502v38h11.502c10.496 0 19.003-8.51 19-19.006-.003-10.49-8.509-18.994-19-18.994z" fill="#ffddce"/></g></g></g></g></g></svg>