<svg xmlns="http://www.w3.org/2000/svg" viewBox="0 0 16 16" data-supported-dps="16x16" fill="currentColor" width="16" height="16" focusable="false">
  <path d="M8 1a7 7 0 107 7 7 7 0 00-7-7zm0 1.84a5.16 5.16 0 011 .1v1.65l-1.71 1.7-.29.3v1L4.09 4.67A5.13 5.13 0 018 2.84zm1 10.22v-1.68l-.55-.28L7 10.38V9h3.09l.71.72L9.32 13zM2.84 8a5.1 5.1 0 01.67-2.49L6 8v2.38a1 1 0 00.55.89L8 12v1.16A5.17 5.17 0 012.84 8zm7.85 4.39L11.78 10a.75.75 0 00-.15-.84l-.84-.84a1 1 0 00-.7-.32H8V7l1.71-1.71a1 1 0 00.29-.7V3.24a5.14 5.14 0 01.69 9.15z"></path>
</svg>