<svg xmlns="http://www.w3.org/2000/svg" viewBox="0 0 16 16" data-supported-dps="16x16" width="16" height="16" focusable="false">
  <path d="M13.75 1H2.25A1.25 1.25 0 001 2.25v11.5A1.25 1.25 0 002.25 15h11.5A1.25 1.25 0 0015 13.75V2.25A1.25 1.25 0 0013.75 1z" fill="#0073b1"></path>
  <path d="M4 2.68A1.36 1.36 0 002.69 4 1.36 1.36 0 004 5.31 1.36 1.36 0 005.31 4 1.36 1.36 0 004 2.68zM3 6h2v7H3zM10.25 5.88a3 3 0 00-2.31 1h-.06V6H6v7h2v-3c0-1.17.48-2 1.62-2 .91 0 1.38.66 1.38 2v3h2V8.88c0-1.88-.79-3-2.75-3z" fill="#fff"></path>
</svg>