<svg xmlns="http://www.w3.org/2000/svg" viewBox="0 0 24 24" data-supported-dps="24x24" fill="currentColor" width="24" height="24" focusable="false">
  <path d="M12 6c-1.7 0-3 1.3-3 3s1.3 3 3 3 3-1.3 3-3-1.3-3-3-3zm0 5.1c-1.2 0-2.1-1-2.1-2.1 0-1.2 1-2.1 2.1-2.1 1.2 0 2.1 1 2.1 2.1 0 1.2-.9 2.1-2.1 2.1zm0-7.2c2.8 0 5.1 2.3 5.1 5.1 0 .7-.2 1.5-.5 2.2L12 20l-4.6-8.8c-.4-.7-.5-1.5-.5-2.2 0-2.8 2.3-5.1 5.1-5.1M12 2C8.1 2 5 5.1 5 9c0 1 .2 2.1.7 3l5.6 10.5c.2.4.7.6 1.2.4.2-.1.3-.2.4-.4L18.3 12c1.7-3.5.2-7.7-3.3-9.3-.9-.5-2-.7-3-.7z"></path>
</svg>