<svg xmlns="http://www.w3.org/2000/svg" viewBox="0 0 24 24" data-supported-dps="24x24" fill="currentColor" width="24" height="24" focusable="false">
  <path d="M12 9.88A2.13 2.13 0 119.88 12 2.13 2.13 0 0112 9.88M12 9a3 3 0 103 3 3 3 0 00-3-3zm9-4H3a1 1 0 00-1 1v12a1 1 0 001 1h18a1 1 0 001-1V6a1 1 0 00-1-1zM4 7h2.13A2.13 2.13 0 014 9.13V7zm0 10v-2.12A2.13 2.13 0 016.13 17H4zm16 0h-2.12A2.13 2.13 0 0120 14.88V17zm0-3a3 3 0 00-3 3H7a3 3 0 00-3-3v-4a3 3 0 003-3h10a3 3 0 003 3v4zm0-4.87A2.13 2.13 0 0117.88 7H20v2.13z"></path>
</svg>