<svg xmlns="http://www.w3.org/2000/svg" viewBox="0 0 40 40" data-supported-dps="40x40" width="40" height="40" focusable="false">
  <defs>
    <linearGradient id="app-groups-@1-b" x1="1.84" y1="-24.59" x2="20.66" y2="25.05" gradientUnits="userSpaceOnUse">
      <stop offset="0" stop-color="#665ed0"></stop>
      <stop offset="1" stop-color="#0073b1"></stop>
    </linearGradient>
    <clipPath id="app-groups-@1-a">
      <path d="M18.17 9.15a11 11 0 00-7.76 16.23l-2 5.6a.47.47 0 00.63.59l5.21-2.23a11 11 0 103.92-20.19z" fill="none"></path>
    </clipPath>
  </defs>
  <path d="M18.17 9.15a11 11 0 00-7.76 16.23l-2 5.6a.47.47 0 00.63.59l5.21-2.23a11 11 0 103.92-20.19z" fill="#caedff"></path>
  <circle cx="29" cy="16" r="3" fill="#0091ca"></circle>
  <circle cx="11" cy="16" r="3" fill="#0091ca"></circle>
  <g clip-path="url(#app-groups-@1-a)">
    <path d="M20 18a4 4 0 114-4 4 4 0 01-4 4zm3 2h-6v16h6V20z" fill="url(#app-groups-@1-b)"></path>
    <path fill="#0091ca" d="M26 21h6v14h-6zM8 21h6v14H8z"></path>
  </g>
</svg>