<svg xmlns="http://www.w3.org/2000/svg" viewBox="0 0 40 40" data-supported-dps="40x40" width="40" height="40" focusable="false">
  <defs>
    <linearGradient id="app-ads-@1-a" x1="34.78" y1="3.84" x2="14.66" y2="25.84" gradientUnits="userSpaceOnUse">
      <stop offset="0" stop-color="#665ed0"></stop>
      <stop offset="1" stop-color="#0073b1"></stop>
    </linearGradient>
  </defs>
  <g fill="url(#app-ads-@1-a)">
    <path d="M20 11.88A8.13 8.13 0 1111.88 20 8.13 8.13 0 0120 11.88M20 9a11 11 0 1011 11A11 11 0 0020 9z"></path>
    <circle cx="20" cy="20" r="4"></circle>
  </g>
  <circle cx="20" cy="20" r="2" transform="rotate(-45 20.002 19.995)" fill="#33aada"></circle>
  <path fill="#33aada" d="M24.246 12.932l2.829 2.828-5.657 5.657-2.828-2.829z"></path>
  <path fill="#33aada" d="M29.19 16.46l-4.95-.7-.7-4.95 4.94-4.95L29 11l5.14.52-4.95 4.94z"></path>
</svg>