<svg xmlns="http://www.w3.org/2000/svg" viewBox="0 0 16 16" data-supported-dps="16x16" fill="currentColor" width="16" height="16" focusable="false">
  <path d="M15.11 9.41l-1.74-1.16.41-.83a2 2 0 00.22-.89v-1a1.5 1.5 0 00-3 0v1a2 2 0 00.21.89l.41.83h-.07l-.21-.13L9 7v-.5l.33-.5A4 4 0 0010 3.79v-.68A2.07 2.07 0 008.34 1 2 2 0 006 3v.79A4 4 0 006.67 6l.33.5V7L4.66 8.17l-.21.13h-.07l.41-.83A2 2 0 005 6.53v-1a1.5 1.5 0 00-3 0v1a2 2 0 00.21.89l.42.83L.89 9.41A2 2 0 000 11.07V14a1 1 0 001 1h14a1 1 0 001-1v-2.93a2 2 0 00-.89-1.66zM3 10.73V13H2v-2.05l1-.69a3 3 0 000 .47zM11 13H5v-2.27a1 1 0 01.55-.89L8 8.61l2.45 1.22a1 1 0 01.55.89V13zm3 0h-1v-2.27-.48l1 .69V13z"></path>
</svg>