<svg viewBox="0 0 24 24" width="24px" height="24px" x="0" y="0" preserveAspectRatio="xMinYMin meet" class="nav-icon" focusable="false" xmlns="http://www.w3.org/2000/svg"><path d="M2,13H22v6a1,1,0,0,1-1,1H3a1,1,0,0,1-1-1V13ZM22,8v4H2V8A1,1,0,0,1,3,7H7V6a3,3,0,0,1,3-3h4a3,3,0,0,1,3,3V7h4A1,1,0,0,1,22,8ZM15,6a1,1,0,0,0-1-1H10A1,1,0,0,0,9,6V7h6V6Z" class="active-item" style="fill-opacity: 1"></path><path d="M21,7H17V6a3,3,0,0,0-3-3H10A3,3,0,0,0,7,6V7H3A1,1,0,0,0,2,8V19a1,1,0,0,0,1,1H21a1,1,0,0,0,1-1V8A1,1,0,0,0,21,7ZM9,6a1,1,0,0,1,1-1h4a1,1,0,0,1,1,1V7H9V6ZM20,18H4V13H20v5Zm0-6H4V9H20v3Z" class="inactive-item" style="fill: currentColor"></path></svg>