<?xml version="1.0" ?><!DOCTYPE svg  PUBLIC '-//W3C//DTD SVG 1.1//EN'  'http://www.w3.org/Graphics/SVG/1.1/DTD/svg11.dtd'><svg enable-background="new 0 0 50 50" id="Layer_1" version="1.1" viewBox="0 0 50 50" xml:space="preserve" xmlns="http://www.w3.org/2000/svg" xmlns:xlink="http://www.w3.org/1999/xlink"><path d="M45,1H5C2.8,1,1,2.8,1,5v40c0,2.2,1.8,4,4,4h40c2.2,0,4-1.8,4-4V5C49,2.8,47.2,1,45,1z" fill="#0E76A8"/><g id="in"><path d="M21.3,20.7h5.2v2.6l0,0c0.7-1.4,2.6-2.6,5.2-2.6c5.5,0,6.1,3.1,6.1,7.8V38h-5.2v-8.7   c0-2,0.2-4.3-2.6-4.3c-3.5,0-3.5,2.1-3.5,4.3V38h-5.2L21.3,20.7L21.3,20.7z" fill="#FFFFFF" id="n_1_"/><rect fill="#FFFFFF" height="17.3" id="_x7C__1_" width="5.2" x="12.7" y="20.7"/><circle cx="15.3" cy="15" fill="#FFFFFF" id="_x28____x29__1_" r="3"/></g></svg>