<?xml version="1.0" ?><svg height="20" version="1.1" viewBox="0 0 20 20" width="20" xmlns="http://www.w3.org/2000/svg"><g id="layer1"><path d="M 0 1 L 0 12 L 2 12 L 2 15.5 C 2 15.776142 2.2238576 16 2.5 16 C 2.6326005 15.99998 2.7597628 15.94729 2.8535156 15.853516 C 4.1335162 14.57007 6.7070312 12 6.7070312 12 L 17 12 L 17 1 L 0 1 z M 1 2 L 16 2 L 16 11 L 6.2929688 11 L 3 14.292969 L 3 11 L 1 11 L 1 2 z M 3 4 L 3 5 L 11 5 L 11 4 L 3 4 z M 18 4 L 18 5 L 19 5 L 19 14 L 17 14 L 17 17.292969 L 13.707031 14 L 6 14 L 5 15 L 13.292969 15 C 13.292969 15 15.866484 17.57007 17.146484 18.853516 C 17.240237 18.94729 17.367399 18.99998 17.5 19 C 17.776142 19 18 18.776142 18 18.5 L 18 15 L 20 15 L 20 4 L 18 4 z M 3 6 L 3 7 L 7 7 L 7 6 L 3 6 z M 3 8 L 3 9 L 13 9 L 13 8 L 3 8 z " style="fill:#222222; fill-opacity:1; stroke:none; stroke-width:0px;"/></g></svg>