<?xml version="1.0" ?><!DOCTYPE svg  PUBLIC '-//W3C//DTD SVG 1.1//EN'  'http://www.w3.org/Graphics/SVG/1.1/DTD/svg11.dtd'><svg enable-background="new 0 0 50 50" height="50px" id="Layer_1" version="1.1" viewBox="0 0 50 50" width="50px" xml:space="preserve" xmlns="http://www.w3.org/2000/svg" xmlns:xlink="http://www.w3.org/1999/xlink"><rect fill="none" height="50" width="50"/><path d="M24.933,33.528  c-0.146-1.612-0.09-2.737-0.09-4.21c0.73-0.383,2.038-2.825,2.259-4.888c0.574-0.047,1.479-0.607,1.744-2.818  c0.143-1.187-0.425-1.855-0.771-2.065c0.934-2.809,2.874-11.499-3.588-12.397c-0.665-1.168-2.368-1.759-4.581-1.759  c-8.854,0.163-9.922,6.686-7.981,14.156c-0.345,0.21-0.913,0.878-0.771,2.065c0.266,2.211,1.17,2.771,1.744,2.818  c0.22,2.062,1.58,4.505,2.312,4.888c0,1.473,0.055,2.598-0.091,4.21C13.367,38.238,1.546,36.916,1,46h38  C38.455,36.916,26.685,38.238,24.933,33.528z" fill="none" stroke="#000000" stroke-linecap="round" stroke-miterlimit="10" stroke-width="2"/><path d="M36.422,40.587H49  c-0.457-7.649-10.37-6.534-11.847-10.5c-0.122-1.359-0.075-2.306-0.075-3.547c0.616-0.323,1.717-2.378,1.903-4.115  c0.481-0.041,1.245-0.511,1.47-2.373c0.119-1-0.36-1.562-0.652-1.74c0.786-2.367,2.422-9.683-3.021-10.44  c-0.56-0.983-1.993-1.48-3.858-1.48c-2.353,0.043-4.052,0.62-5.227,1.587" fill="none" stroke="#000000" stroke-linecap="round" stroke-miterlimit="10" stroke-width="2"/></svg>