<?xml version="1.0" ?><svg viewBox="0 0 66.5011 74.664" xmlns="http://www.w3.org/2000/svg" xmlns:xlink="http://www.w3.org/1999/xlink"><defs><clipPath id="clip-path"><path clip-rule="evenodd" d="M53.478 51.993A30.814 30.814 0 0 1 30.9 61.8a31.206 31.206 0 0 1-3.837-.237A34.069 34.069 0 0 1 15.9 57.919a31.032 31.032 0 0 1-7.856-6.225l1.283-3.1 13.925-6.212c0 4.535 1.31 10.02 7.439 10.113 7.57.114 8.47-5.475 8.47-10.15l12.79 6.282z" fill="none"/></clipPath></defs><title/><g data-name="Layer 2" id="Layer_2"><g data-name="—ÎÓÈ 1" id="_ÎÓÈ_1"><circle cx="30.8999" cy="30.8999" fill="#3dbc93" r="30.8999"/><path d="M53.478 51.993A30.814 30.814 0 0 1 30.9 61.8a31.206 31.206 0 0 1-3.837-.237A34.069 34.069 0 0 1 15.9 57.919a31.032 31.032 0 0 1-7.856-6.225l1.283-3.1 13.925-6.212c0 4.535 1.31 10.02 7.439 10.113 7.57.114 8.47-5.475 8.47-10.15l12.79 6.282z" fill="#e9573e" fill-rule="evenodd"/><g clip-path="url(#clip-path)"><path d="M.694 74.664v-.762H66.5v.762H.694zm9.401-40.977v2.237h2.215v-2.237zm0 3v2.24h2.215v-2.24zm0 3.002v1.86h2.215v-1.86zm0 2.622v2.24h2.215v-2.24zm0 3.002v2.237h2.215v-2.237zm0 3v2.24h2.215v-2.24zm0 3.002v1.956h2.215v-1.956zm0 2.718v2.24h2.215v-2.24zm0 3.003v2.237h2.215v-2.237zm0 2.999v2.24h2.215v-2.24zm0 3.002v1.86h2.215v-1.86zm0 2.623v2.229h-.753v-2.23H.694v-.762h8.648v-1.86H.694v-.762h8.648v-2.24H.694v-.762h8.648v-2.237H.694v-.763h8.648v-2.24H.694v-.762h8.648v-1.956H.694v-.762h8.648v-2.24H.694v-.763h8.648v-2.237H.694v-.762h8.648v-2.24H.694v-.762h8.648v-1.86H.694v-.763h8.648v-2.24H.694v-.762h8.648v-2.237H.694v-.763H66.5v.763h-12.92v2.237H66.5v.762h-12.92v2.24H66.5v.763h-12.92v1.86H66.5v.762h-12.92v2.24H66.5v.762h-12.92v2.237H66.5v.763h-12.92v2.24H66.5v.762h-12.92v1.956H66.5v.762h-12.92v2.24H66.5v.763h-12.92v2.237H66.5v.762h-12.92v2.24H66.5v.762h-12.92v1.86H66.5v.762h-12.92v2.23h-.755v-2.23h-2.214v2.23h-.755v-2.23h-2.211v2.23h-.754v-2.23h-2.215v2.23h-.754v-2.23h-1.838v2.23h-.754v-2.23h-2.215v2.23h-.754v-2.23H36.15v2.23h-.754v-2.23h-2.215v2.23h-.754v-2.23h-1.933v2.23h-.754v-2.23h-2.215v2.23h-.753v-2.23H24.56v2.23h-.754v-2.23H21.59v2.23h-.754v-2.23H19v2.23h-.754v-2.23H16.03v2.23h-.754v-2.23h-2.212v2.23h-.754v-2.23zm24.627-35.738h31.78v.762H.693v-.762h34.028zm18.104 3.765h-2.214v2.237h2.214v-2.237zm-2.969 0h-2.211v2.237h2.211v-2.237zm-2.965 0h-2.215v2.237h2.215v-2.237zm-2.969 0h-1.838v2.237h1.838v-2.237zm-2.592 0h-2.215v2.237h2.215v-2.237zm-2.969 0H36.15v2.237h2.212v-2.237zm-2.966 0h-2.215v2.237h2.215v-2.237zm-2.969 0h-1.933v2.237h1.933v-2.237zm-2.687 0h-2.215v2.237h2.216v-2.237zm-2.969 0H24.56v2.237h2.212v-2.237zm-2.965 0H21.59v2.237h2.215v-2.237zm-2.969 0H19v2.237h1.838v-2.237zm-2.592 0H16.03v2.237h2.215v-2.237zm-2.97 0h-2.21v2.237h2.21v-2.237zm37.551 3h-2.214v2.24h2.214v-2.24zm-2.969 0h-2.211v2.24h2.211v-2.24zm-2.965 0h-2.215v2.24h2.215v-2.24zm-2.969 0h-1.838v2.24h1.838v-2.24zm-2.592 0h-2.215v2.24h2.215v-2.24zm-2.969 0H36.15v2.24h2.212v-2.24zm-2.966 0h-2.215v2.24h2.215v-2.24zm-2.969 0h-1.933v2.24h1.933v-2.24zm-2.687 0h-2.215v2.24h2.216v-2.24zm-2.969 0H24.56v2.24h2.212v-2.24zm-2.965 0H21.59v2.24h2.215v-2.24zm-2.969 0H19v2.24h1.838v-2.24zm-2.592 0H16.03v2.24h2.215v-2.24zm-2.97 0h-2.21v2.24h2.21v-2.24zm37.551 3.002h-2.214v1.86h2.214v-1.86zm-2.969 0h-2.211v1.86h2.211v-1.86zm-2.965 0h-2.215v1.86h2.215v-1.86zm-2.969 0h-1.838v1.86h1.838v-1.86zm-2.592 0h-2.215v1.86h2.215v-1.86zm-2.969 0H36.15v1.86h2.212v-1.86zm-2.966 0h-2.215v1.86h2.215v-1.86zm-2.969 0h-1.933v1.86h1.933v-1.86zm-2.687 0h-2.215v1.86h2.216v-1.86zm-2.969 0H24.56v1.86h2.212v-1.86zm-2.965 0H21.59v1.86h2.215v-1.86zm-2.969 0H19v1.86h1.838v-1.86zm-2.592 0H16.03v1.86h2.215v-1.86zm-2.97 0h-2.21v1.86h2.21v-1.86zm37.551 2.622h-2.214v2.24h2.214v-2.24zm-2.969 0h-2.211v2.24h2.211v-2.24zm-2.965 0h-2.215v2.24h2.215v-2.24zm-2.969 0h-1.838v2.24h1.838v-2.24zm-2.592 0h-2.215v2.24h2.215v-2.24zm-2.969 0H36.15v2.24h2.212v-2.24zm-2.966 0h-2.215v2.24h2.215v-2.24zm-2.969 0h-1.933v2.24h1.933v-2.24zm-2.687 0h-2.215v2.24h2.216v-2.24zm-2.969 0H24.56v2.24h2.212v-2.24zm-2.965 0H21.59v2.24h2.215v-2.24zm-2.969 0H19v2.24h1.838v-2.24zm-2.592 0H16.03v2.24h2.215v-2.24zm-2.97 0h-2.21v2.24h2.21v-2.24zm37.551 3.002h-2.214v2.237h2.214v-2.237zm-2.969 0h-2.211v2.237h2.211v-2.237zm-2.965 0h-2.215v2.237h2.215v-2.237zm-2.969 0h-1.838v2.237h1.838v-2.237zm-2.592 0h-2.215v2.237h2.215v-2.237zm-2.969 0H36.15v2.237h2.212v-2.237zm-2.966 0h-2.215v2.237h2.215v-2.237zm-2.969 0h-1.933v2.237h1.933v-2.237zm-2.687 0h-2.215v2.237h2.216v-2.237zm-2.969 0H24.56v2.237h2.212v-2.237zm-2.965 0H21.59v2.237h2.215v-2.237zm-2.969 0H19v2.237h1.838v-2.237zm-2.592 0H16.03v2.237h2.215v-2.237zm-2.97 0h-2.21v2.237h2.21v-2.237zm37.551 3h-2.214v2.24h2.214v-2.24zm-2.969 0h-2.211v2.24h2.211v-2.24zm-2.965 0h-2.215v2.24h2.215v-2.24zm-2.969 0h-1.838v2.24h1.838v-2.24zm-2.592 0h-2.215v2.24h2.215v-2.24zm-2.969 0H36.15v2.24h2.212v-2.24zm-2.966 0h-2.215v2.24h2.215v-2.24zm-2.969 0h-1.933v2.24h1.933v-2.24zm-2.687 0h-2.215v2.24h2.216v-2.24zm-2.969 0H24.56v2.24h2.212v-2.24zm-2.965 0H21.59v2.24h2.215v-2.24zm-2.969 0H19v2.24h1.838v-2.24zm-2.592 0H16.03v2.24h2.215v-2.24zm-2.97 0h-2.21v2.24h2.21v-2.24zm37.551 3.002h-2.214v1.956h2.214v-1.956zm-2.969 0h-2.211v1.956h2.211v-1.956zm-2.965 0h-2.215v1.956h2.215v-1.956zm-2.969 0h-1.838v1.956h1.838v-1.956zm-2.592 0h-2.215v1.956h2.215v-1.956zm-2.969 0H36.15v1.956h2.212v-1.956zm-2.966 0h-2.215v1.956h2.215v-1.956zm-2.969 0h-1.933v1.956h1.933v-1.956zm-2.687 0h-2.215v1.956h2.216v-1.956zm-2.969 0H24.56v1.956h2.212v-1.956zm-2.965 0H21.59v1.956h2.215v-1.956zm-2.969 0H19v1.956h1.838v-1.956zm-2.592 0H16.03v1.956h2.215v-1.956zm-2.97 0h-2.21v1.956h2.21v-1.956zm37.551 2.718h-2.214v2.24h2.214v-2.24zm-2.969 0h-2.211v2.24h2.211v-2.24zm-2.965 0h-2.215v2.24h2.215v-2.24zm-2.969 0h-1.838v2.24h1.838v-2.24zm-2.592 0h-2.215v2.24h2.215v-2.24zm-2.969 0H36.15v2.24h2.212v-2.24zm-2.966 0h-2.215v2.24h2.215v-2.24zm-2.969 0h-1.933v2.24h1.933v-2.24zm-2.687 0h-2.215v2.24h2.216v-2.24zm-2.969 0H24.56v2.24h2.212v-2.24zm-2.965 0H21.59v2.24h2.215v-2.24zm-2.969 0H19v2.24h1.838v-2.24zm-2.592 0H16.03v2.24h2.215v-2.24zm-2.97 0h-2.21v2.24h2.21v-2.24zm37.551 3.003h-2.214v2.237h2.214v-2.237zm-2.969 0h-2.211v2.237h2.211v-2.237zm-2.965 0h-2.215v2.237h2.215v-2.237zm-2.969 0h-1.838v2.237h1.838v-2.237zm-2.592 0h-2.215v2.237h2.215v-2.237zm-2.969 0H36.15v2.237h2.212v-2.237zm-2.966 0h-2.215v2.237h2.215v-2.237zm-2.969 0h-1.933v2.237h1.933v-2.237zm-2.687 0h-2.215v2.237h2.216v-2.237zm-2.969 0H24.56v2.237h2.212v-2.237zm-2.965 0H21.59v2.237h2.215v-2.237zm-2.969 0H19v2.237h1.838v-2.237zm-2.592 0H16.03v2.237h2.215v-2.237zm-2.97 0h-2.21v2.237h2.21v-2.237zm37.551 2.999h-2.214v2.24h2.214v-2.24zm-2.969 0h-2.211v2.24h2.211v-2.24zm-2.965 0h-2.215v2.24h2.215v-2.24zm-2.969 0h-1.838v2.24h1.838v-2.24zm-2.592 0h-2.215v2.24h2.215v-2.24zm-2.969 0H36.15v2.24h2.212v-2.24zm-2.966 0h-2.215v2.24h2.215v-2.24zm-2.969 0h-1.933v2.24h1.933v-2.24zm-2.687 0h-2.215v2.24h2.216v-2.24zm-2.969 0H24.56v2.24h2.212v-2.24zm-2.965 0H21.59v2.24h2.215v-2.24zm-2.969 0H19v2.24h1.838v-2.24zm-2.592 0H16.03v2.24h2.215v-2.24zm-2.97 0h-2.21v2.24h2.21v-2.24zm37.551 3.002h-2.214v1.86h2.214v-1.86zm-2.969 0h-2.211v1.86h2.211v-1.86zm-2.965 0h-2.215v1.86h2.215v-1.86zm-2.969 0h-1.838v1.86h1.838v-1.86zm-2.592 0h-2.215v1.86h2.215v-1.86zm-2.969 0H36.15v1.86h2.212v-1.86zm-2.966 0h-2.215v1.86h2.215v-1.86zm-2.969 0h-1.933v1.86h1.933v-1.86zm-2.687 0h-2.215v1.86h2.216v-1.86zm-2.969 0H24.56v1.86h2.212v-1.86zm-2.965 0H21.59v1.86h2.215v-1.86zm-2.969 0H19v1.86h1.838v-1.86zm-2.592 0H16.03v1.86h2.215v-1.86zm-2.97 0h-2.21v1.86h2.21v-1.86zM34.723 67.9h31.78v.762H.693V67.9h34.028zm0 2.999h31.78v.763H.693v-.763h34.028z" fill-rule="evenodd" opacity="0.18"/></g><path d="M23.255 38.68l15.907.121v12.918l-15.907-.121V38.68z" fill="#f9dca4" fill-rule="evenodd"/><path d="M39.162 60.682a31.097 31.097 0 0 1-15.907.164v-13.26c3.922 4.713 11.848 4.664 15.907.121z" fill="#677079" fill-rule="evenodd"/><path d="M39.165 43.46v2.258c0 .161.002 1.46-.003 1.467-4.75 3.472-14.539 1.365-15.907-3.124z" fill-rule="evenodd" opacity="0.11"/><path d="M31.129 8.432c21.281 0 12.987 35.266 0 35.266-12.266 0-21.281-35.266 0-35.266z" fill="#ffe8be" fill-rule="evenodd"/><path d="M18.365 24.046c-3.07 1.339-.46 7.686 1.472 7.658a31.972 31.972 0 0 1-1.472-7.659z" fill="#f9dca4" fill-rule="evenodd"/><path d="M44.14 24.045c3.07 1.339.46 7.687-1.471 7.658a31.993 31.993 0 0 0 1.471-7.658z" fill="#f9dca4" fill-rule="evenodd"/><path d="M23.258 53.239l-2.404-2.236-4.803 2.358 7.205-13.65.002 13.528z" fill="#434955" fill-rule="evenodd"/><path d="M39.157 53.239l2.404-2.237 4.804 2.359-7.206-13.651-.002 13.529z" fill="#434955" fill-rule="evenodd"/><path d="M18.368 23.94C15.536 18.98 14.68 15.73 16.1 13.29c2.049-3.52 6.571-3.089 6.965-3.918 4.025-8.479 24.839-2.048 23.97 11.09a14.806 14.806 0 0 0-1.522-2.486s-.075 4.991-1.437 6.957c-1.663-2.874-6.427-5.747-6.427-5.747s1.285 4.31 2.117 5.218c-1.074-.094-13.159-3.479-16.26-13.537-4.007 2.269-5.29 9.366-5.14 13.072z" fill="#60350a" fill-rule="evenodd"/><path d="M31.15 46.543c-2.66.022-15.053.136-12.796-22.713 0 0 .835 6.584 2.96 9.456a2.566 2.566 0 0 0 3.822.746c1.16-.835 1.397-2.407 2.834-2.917a2.68 2.68 0 0 1 3.24.782 2.633 2.633 0 0 1 3.213-.782c1.437.51 1.675 2.082 2.834 2.917a2.566 2.566 0 0 0 3.821-.746c2.126-2.873 2.962-9.456 2.962-9.456 2.256 22.85-10.23 22.735-12.89 22.713z" fill="#60350a" fill-rule="evenodd"/><path d="M23.94 35.855s5.64 1.699 7.233-3.5l.023-.075.022.075c1.592 5.199 7.234 3.5 7.234 3.5-2.977 2.458-5.176-.206-7.285-.154-2.273.056-4.335 2.542-7.228.154z" fill="#362008" fill-rule="evenodd"/></g></g></svg>