<svg xmlns="http://www.w3.org/2000/svg" viewBox="0 0 24 24" data-supported-dps="24x24" fill="currentColor" width="24" height="24" focusable="false">
  <path d="M21 13V3h-4.5l-3-.76A8 8 0 0011.52 2H7a2.5 2.5 0 00-2.5 2.5 2.47 2.47 0 000 .36 2.46 2.46 0 00-1.42 2.92 2.48 2.48 0 00-.69 3.39A2.48 2.48 0 002 12.6 2.61 2.61 0 004.66 15H9l-.7 2.53a9 9 0 00-.3 2.39v.58a2.5 2.5 0 002.5 2.5h2.24l.37-1.67A14.81 14.81 0 0115.36 16l2.15-3H21zm-2-2h-2.4l-2.76 3.91a17.82 17.82 0 00-2.52 6.22h-.94a.5.5 0 01-.5-.5v-.56a9 9 0 01.33-2.37L11.5 13H4.92a1 1 0 01-1-.87.88.88 0 01.08-.51l.46-.72-.46-.72a.88.88 0 01-.12-.48.9.9 0 01.39-.7L5 8.43l-.19-.91a.93.93 0 010-.22.9.9 0 01.55-.83l1-.4L6.14 5v-.14A.9.9 0 017 4h5a6 6 0 011.46.18l3.42.82H19v6z"></path>
</svg>