<!--

      STOP! This is an auto-generated file. Do not edit!

-->
  <svg id="svg-source" width="24px" height="390px" xmlns="http://www.w3.org/2000/svg" xmlns:xlink="http://www.w3.org/1999/xlink" version="1.1">
  <defs id="background-ui-icons">
    <svg id="cancel-icon" viewBox="0 0 24 24" width="24px" height="24px" x="0" y="0" preserveAspectRatio="xMinYMin meet" class="artdeco-icon">
      <path d="M13,4.32L9.31,8,13,11.69,11.69,13,8,9.31,4.31,13,3,11.69,6.69,8,3,4.31,4.31,3,8,6.69,11.68,3Z" class="small-icon" style="fill-opacity: 1" id="cancel-icon-small"/>
      <path d="M20,5.32L13.32,12,20,18.68,18.66,20,12,13.33,5.34,20,4,18.68,10.68,12,4,5.32,5.32,4,12,10.69,18.68,4Z" class="large-icon" style="fill: currentColor" id="cancel-icon-large"/>
    </svg>
    <svg id="caret-filled-down-icon" viewBox="0 0 24 24" width="24px" height="24px" x="0" y="0" preserveAspectRatio="xMinYMin meet" class="artdeco-icon">
      <path d="M8.8,10.66L14,5.12A0.07,0.07,0,0,0,13.93,5H2.07A0.07,0.07,0,0,0,2,5.12L7.2,10.66A1.1,1.1,0,0,0,8.8,10.66Z" class="small-icon" style="fill-opacity: 1" id="caret-filled-down-icon-small"/>
      <path d="M5,9h14l-6.2,6.7C12.6,15.9,12.3,16,12,16c-0.3,0-0.6-0.1-0.8-0.3L5,9z" class="large-icon" style="fill: currentColor" id="caret-filled-down-icon-large"/>
    </svg>
    <svg id="check-icon" viewBox="0 0 24 24" width="24px" height="24px" x="0" y="0" preserveAspectRatio="xMinYMin meet" class="artdeco-icon">
      <path d="M15,3L6.57,13.72A0.7,0.7,0,0,1,6,14a0.72,0.72,0,0,1-.56-0.27L1,8.07,2.36,7,6,11.72,13.68,2Z" class="small-icon" style="fill-opacity: 1" id="check-icon-small"/>
      <path d="M19.68,4L9,17.7,4.36,12,3,13.06l5.42,6.67A0.72,0.72,0,0,0,9,20a0.7,0.7,0,0,0,.59-0.28L21,5.05Z" class="large-icon" style="fill: currentColor" id="check-icon-large"/>
    </svg>
    <svg id="chevron-down-icon" viewBox="0 0 24 24" width="24px" height="24px" x="0" y="0" preserveAspectRatio="xMinYMin meet" class="artdeco-icon">
      <path d="M8,9l5.93-4L15,6.54l-6.15,4.2a1.5,1.5,0,0,1-1.69,0L1,6.54,2.07,5Z" class="small-icon" style="fill-opacity: 1" id="chevron-down-icon-small"/>
      <path d="M12,14l8.94-6L22,9.55l-9.15,6.19a1.5,1.5,0,0,1-1.69,0L2,9.55,3.06,8Z" class="large-icon" style="fill: currentColor" id="chevron-down-icon-large"/>
    </svg>
    <svg id="document-icon" viewBox="0 0 24 24" width="24px" height="24px" x="0" y="0" preserveAspectRatio="xMinYMin meet" class="artdeco-icon">
      <path d="M9.13,1H4A1,1,0,0,0,3,2V14a1,1,0,0,0,1,1h8a1,1,0,0,0,1-1V4.9ZM11,13H5V3H8V6h3v7ZM6,8h4V9H6V8Zm0,2H9v1H6V10Z" class="small-icon" style="fill-opacity: 1" id="document-icon-small"/>
      <path d="M14.13,2H5A1,1,0,0,0,4,3V21a1,1,0,0,0,1,1H19a1,1,0,0,0,1-1V7.88ZM18,20H6V4h7V9h5V20ZM8,12h8v1H8V12Zm0,3h6v1H8V15Z" class="large-icon" style="fill: currentColor" id="document-icon-large"/>
    </svg>
    <svg id="error-pebble-icon" viewBox="0 0 24 24" width="24px" height="24px" x="0" y="0" preserveAspectRatio="xMinYMin meet" class="artdeco-icon">
      <g class="small-icon" style="fill-opacity: 1" id="error-pebble-icon-small">
        <circle class="circle" r="6.1" stroke="currentColor" stroke-width="1.8" cx="8" cy="8" fill="none" transform="rotate(-90 8 8)"/>
        <path fill="currentColor" d="M10.916,6.216L9.132,8l1.784,1.784l-1.132,1.132L8,9.132l-1.784,1.784L5.084,9.784L6.918,8L5.084,6.216l1.132-1.132L8,6.868l1.784-1.784L10.916,6.216z"/>
      </g>
      <g class="large-icon" style="fill: currentColor" id="error-pebble-icon-large">
        <circle class="circle" r="9.1" stroke="currentColor" stroke-width="1.8" cx="12" cy="12" fill="none" transform="rotate(-90 12 12)"/>
        <path d="M13.238,12l3.463,3.463L15.463,16.7L12,13.237L8.538,16.7L7.3,15.463L10.763,12L7.3,8.537L8.538,7.3L12,10.763l3.452-3.452l1.238,1.237L13.238,12z"/>
      </g>
    </svg>
    <svg id="search-icon" viewBox="0 0 24 24" width="24px" height="24px" x="0" y="0" preserveAspectRatio="xMinYMin meet" class="artdeco-icon">
      <path d="M14,12.67L11.13,9.8A5,5,0,1,0,9.8,11.13L12.67,14ZM3.88,7A3.13,3.13,0,1,1,7,10.13,3.13,3.13,0,0,1,3.88,7Z" class="small-icon" style="fill-opacity: 1" id="search-icon-small"/>
      <path d="M21,19.67l-5.44-5.44a7,7,0,1,0-1.33,1.33L19.67,21ZM10,15.13A5.13,5.13,0,1,1,15.13,10,5.13,5.13,0,0,1,10,15.13Z" class="large-icon" style="fill: currentColor" id="search-icon-large"/>
    </svg>
    <svg id="success-pebble-icon" viewBox="0 0 24 24" width="24px" height="24px" x="0" y="0" preserveAspectRatio="xMinYMin meet" class="artdeco-icon">
      <g class="small-icon" style="fill-opacity: 1" id="success-pebble-icon-small">
        <circle class="circle" r="6.1" stroke="currentColor" stroke-width="1.8" cx="8" cy="8" fill="none" transform="rotate(-90 8 8)"/>
        <path d="M9.95,5.033l1.2,0.859l-3.375,4.775C7.625,10.875,7.386,10.999,7.13,11c-0.002,0-0.003,0-0.005,0    c-0.254,0-0.493-0.12-0.644-0.325L4.556,8.15l1.187-0.875l1.372,1.766L9.95,5.033z" fill="currentColor"/>
      </g>
      <g class="large-icon" style="fill: currentColor" id="success-pebble-icon-large">
        <circle class="circle" r="9.1" stroke="currentColor" stroke-width="1.8" cx="12" cy="12" fill="none" transform="rotate(-90 12 12)"/>
        <path d="M15.667,8L17,9.042l-5.316,7.36c-0.297,0.395-0.739,0.594-1.184,0.599c-0.455,0.005-0.911-0.195-1.215-0.599l-2.441-3.456l1.416-1.028l2.227,3.167L15.667,8z" fill="currentColor"/>
      </g>
    </svg>
    <svg id="yield-pebble-icon" viewBox="0 0 24 24" width="24px" height="24px" x="0" y="0" preserveAspectRatio="xMinYMin meet" class="artdeco-icon">
      <g class="small-icon" style="fill-opacity: 1" id="yield-pebble-icon-small">
        <circle class="circle" r="6.1" stroke="currentColor" stroke-width="1.8" cx="8" cy="8" fill="none" transform="rotate(-90 8 8)"/>
        <path d="M7,10h2v2H7V10z M7,9h2V4H7V9z"/>
      </g>
      <g class="large-icon" style="fill: currentColor" id="yield-pebble-icon-large">
        <circle class="circle" r="9.1" stroke="currentColor" stroke-width="1.8" cx="12" cy="12" fill="none" transform="rotate(-90 12 12)"/>
        <path d="M11,16h2v2h-2V16z M11,14h2V6h-2V14z"/>
      </g>
    </svg>
  </defs>
  <style>
  #svg-source use[data-size="large"]{      fill-opacity: 1;      fill: transparent;    }    #svg-source use{      fill-opacity: 0;      fill: currentColor;    }  </style>
  <use x="0" y="0"  xlink:href="#check-icon-small" style="color: #008CC9" width="24px" height="24px"/>
  <use x="0" y="24" xlink:href="#check-icon-small" style="color: #FFFFFF" width="24px" height="24px"/>
  <use x="0" y="48" xlink:href="#chevron-down-icon-small" style="color: #000000;opacity:.55;" width="24px" height="24px"/>
  <use x="0" y="72" xlink:href="#chevron-down-icon-small" style="color: #FFFFFF;opacity:1;" width="24px" height="24px"/>
  <use x="0" y="96" data-size="large" xlink:href="#yield-pebble-icon-large" style="color: #FFFFFF;" width="24px" height="24px"/>
  <use x="0" y="120" data-size="large" xlink:href="#success-pebble-icon-large" style="color: #FFFFFF;" width="24px" height="24px"/>
  <use x="0" y="144" data-size="large" xlink:href="#error-pebble-icon-large" style="color: #FFFFFF;" width="24px" height="24px"/>
  <use x="0" y="168" data-size="large" xlink:href="#success-pebble-icon-large" style="color: #60aa14;" width="24px" height="24px"/>
  <use x="0" y="192" data-size="large" xlink:href="#error-pebble-icon-large" style="color: #dd2e1f;" width="24px" height="24px"/>
  <use x="0" y="216" data-size="large" xlink:href="#document-icon-large" style="color: #FFFFFF;" width="24px" height="24px"/>
  <use x="0" y="240" data-size="large" xlink:href="#cancel-icon-large" style="color: #DDD;" width="24px" height="24px"/>
  <use x="0" y="264" data-size="large" xlink:href="#search-icon-large" style="color: rgba(0,0,0,.55);" width="24px" height="24px"/>
  <use x="4" y="294" data-size="small" xlink:href="#search-icon-small" style="color: rgba(0,0,0,.55);" width="24px" height="24px"/>
  <use x="0" y="318" data-size="small" xlink:href="#caret-filled-down-icon" style="color: rgba(0,0,0,.55);" width="24px" height="24px"/>
  <use x="0" y="342" data-size="small" xlink:href="#caret-filled-down-icon" style="color: rgba(255,255,255,.55);" width="24px" height="24px"/>
  <use x="0" y="366" data-size="small" xlink:href="#check-icon-small" style="color: rgba(0,0,0,.6)" width="24px" height="24px"/>
</svg>

