<svg xmlns="http://www.w3.org/2000/svg" viewBox="0 0 16 16" data-supported-dps="16x16" fill="currentColor" width="16" height="16" focusable="false">
  <path d="M14.27 9.23l-1.2-.45.31-.51A4.17 4.17 0 0014 6.08V5.5a2.5 2.5 0 00-5 0v.58a4.17 4.17 0 00.62 2.19l.31.51-1.15.43a3.48 3.48 0 00-1-.63L7 8.29v-.56l.25-.41A5 5 0 008 4.69V4a3 3 0 00-6 0v.69a5 5 0 00.75 2.63l.25.41v.56l-.74.29A3.5 3.5 0 000 11.84V13a1 1 0 001 1h14a1 1 0 001-1v-1.25a2.7 2.7 0 00-1.73-2.52zm-3.39-3.85a.63.63 0 011.25 0v1a2.29 2.29 0 01-.34 1.2L11.5 8l-.28-.46a2.29 2.29 0 01-.34-1.2v-1zM4 3.75a1 1 0 012 0v1.44a3 3 0 01-.38 1.46l-.33.6a.25.25 0 01-.22.13h-.14a.25.25 0 01-.22-.13l-.33-.6A3 3 0 014 5.19V3.75zM8 12H2v-.32a1.5 1.5 0 011-1.4l1.5-.58v-.5a2 2 0 00.4.05h.2a2 2 0 00.4-.05v.5l1.5.58a1.5 1.5 0 011 1.4V12zm6.13 0H10v-.16a3.48 3.48 0 00-.24-1.25l1.24-.46v-.38h1v.38l1.54.61a.93.93 0 01.58.87V12z"></path>
</svg>