<svg xmlns="http://www.w3.org/2000/svg" viewBox="0 0 56 14" data-supported-dps="56x14" width="56" height="14" focusable="false">
  <g class="inbug" fill="none" fill-rule="evenodd">
    <path d="M54.7 0H42.77c-.57 0-1.056.451-1.056 1.008v11.986c0 .556.485 1.008 1.056 1.008H54.7c.571 0 1.014-.452 1.014-1.008V1.008C55.715.45 55.272 0 54.7 0" class="bug-text-color" fill="#FFF"></path>
    <path d="M54.7 0H42.77c-.57 0-1.056.451-1.056 1.008v11.986c0 .556.485 1.008 1.056 1.008H54.7c.571 0 1.014-.452 1.014-1.008V1.008C55.715.45 55.272 0 54.7 0zm-7.445 5.25h1.896v.953c.274-.548.974-1.04 2.026-1.04 2.017 0 2.496 1.09 2.496 3.091v3.706H51.63V8.71c0-1.14-.273-1.782-.969-1.782-.964 0-1.365.693-1.365 1.782v3.25h-2.042V5.25zm-3.5 6.71h2.042V5.25h-2.042v6.71zm2.334-8.897a1.313 1.313 0 11-2.626 0 1.313 1.313 0 012.626 0z" class="background" fill="#0073B0"></path>
  </g>
  <g class="linkedin-text">
    <path d="M39.671 11.96h-1.75v-1.021c-.319.485-1.246 1.108-2.188 1.108-1.993 0-3.296-1.261-3.296-3.296 0-1.869 1.094-3.588 3.005-3.588.857 0 1.717.167 2.187.817V2.042h2.042v9.918zm-3.719-4.988c-1.038 0-1.56.623-1.56 1.633s.522 1.663 1.56 1.663 1.706-.652 1.706-1.663c0-1.01-.668-1.633-1.706-1.633zM31.504 10.83c-.665.844-1.997 1.217-3.282 1.217-2.076 0-3.37-1.443-3.37-3.588s1.547-3.296 3.662-3.296c1.75 0 3.223 1.23 3.223 3.588 0 .365-.058.583-.058.583h-4.843l.033.196c.116.642.805.971 1.608.971.678 0 1.186-.295 1.532-.766l1.495 1.094zM29.68 7.875c.014-.692-.542-1.254-1.29-1.254-.913 0-1.498.603-1.554 1.254h2.844z"></path>
    <path d="M18.377 2.042h2.042v5.834l2.334-2.625h2.552l-2.844 3.062 2.735 3.647h-2.443L20.419 8.75v3.209h-2.042zM10.793 5.25h1.75v.985c.276-.526 1.178-1.072 2.188-1.072 2.104 0 2.48 1.242 2.48 3.041v3.756h-2.043V8.642c0-.775.045-1.7-1.02-1.7-1.08 0-1.313.828-1.313 1.7v3.318h-2.042V5.25zM8.605 1.787c.675 0 1.276.602 1.276 1.276S9.28 4.339 8.605 4.339c-.674 0-1.276-.602-1.276-1.276s.602-1.276 1.276-1.276zM7.585 11.96h2.041V5.25H7.584v6.71zM0 2.042h2.042v7.876h4.375v2.042H0z"></path>
  </g>
</svg>